<?xml version="1.0" encoding="utf-8"?>
<svg viewBox="36.572 11.071 426.856 253.542" xmlns="http://www.w3.org/2000/svg">
  <g id="Layer-1" transform="matrix(1.9766789674758911, 0, 0, 1.9766789674758911, -164.68748474121094, -156.36151123046875)" style="">
    <path d="M200.694 113.223C216.045 92.6182 242.87 84.1678 267.259 92.2541C291.648 100.34 308.111 123.143 308.111 148.838C308.111 174.532 291.648 197.335 267.259 205.421C242.87 213.507 216.045 205.057 200.694 184.452" fill="#130fa8" fill-opacity="0" fill-rule="nonzero" opacity="1" stroke="#5309cd" stroke-linecap="butt" stroke-linejoin="miter" stroke-width="3"/>
    <path d="M127.209 148.063L127.209 148.063C124.249 148.063 121.579 147.453 119.199 146.233C116.819 145.013 114.936 143.213 113.549 140.833C112.163 138.453 111.469 135.556 111.469 132.143L111.469 132.143C111.469 129.583 111.889 127.309 112.729 125.323C113.569 123.343 114.729 121.673 116.209 120.313C117.683 118.959 119.383 117.939 121.309 117.253C123.229 116.566 125.273 116.223 127.439 116.223L127.439 116.223C129.113 116.223 130.683 116.413 132.149 116.793C133.609 117.173 135.009 117.729 136.349 118.463L136.349 118.463L136.539 124.453L135.299 124.453L133.379 120.843C133.073 120.236 132.746 119.686 132.399 119.193C132.046 118.706 131.596 118.356 131.049 118.143L131.049 118.143C130.289 117.776 129.389 117.593 128.349 117.593L128.349 117.593C126.549 117.593 124.909 118.049 123.429 118.963C121.949 119.883 120.769 121.403 119.889 123.523C119.003 125.643 118.559 128.529 118.559 132.183L118.559 132.183C118.559 135.816 118.979 138.699 119.819 140.833C120.659 142.966 121.796 144.483 123.229 145.383C124.663 146.283 126.279 146.733 128.079 146.733L128.079 146.733C128.899 146.733 129.569 146.673 130.089 146.553C130.609 146.433 131.126 146.263 131.639 146.043L131.639 146.043C132.253 145.803 132.726 145.446 133.059 144.973C133.393 144.499 133.683 143.959 133.929 143.353L133.929 143.353L135.669 139.183L136.899 139.183L136.719 145.773C135.406 146.506 133.959 147.069 132.379 147.463C130.793 147.863 129.069 148.063 127.209 148.063ZM145.409 147.283L138.409 147.283L138.409 146.323L139.649 145.953C140.289 145.773 140.786 145.499 141.139 145.133C141.486 144.766 141.766 144.263 141.979 143.623L141.979 143.623L151.219 116.913L155.019 116.913L164.209 143.803C164.456 144.476 164.733 144.989 165.039 145.343C165.339 145.689 165.826 145.969 166.499 146.183L166.499 146.183L167.189 146.373L167.189 147.283L155.569 147.283L155.569 146.373L156.339 146.143C157.013 145.929 157.419 145.593 157.559 145.133C157.693 144.673 157.653 144.109 157.439 143.443L157.439 143.443L155.519 137.543L145.409 137.543L143.449 143.353C143.229 144.019 143.166 144.566 143.259 144.993C143.353 145.419 143.736 145.756 144.409 146.003L144.409 146.003L145.409 146.323L145.409 147.283ZM150.629 122.443L145.869 136.213L155.109 136.213L150.629 122.443ZM178.579 148.063L178.579 148.063C176.899 148.063 175.199 147.856 173.479 147.443C171.753 147.029 170.309 146.489 169.149 145.823L169.149 145.823L169.429 139.463L170.749 139.463L172.169 142.613C172.596 143.499 173.039 144.233 173.499 144.813C173.953 145.393 174.563 145.836 175.329 146.143L175.329 146.143C175.849 146.356 176.343 146.499 176.809 146.573C177.283 146.653 177.809 146.693 178.389 146.693L178.389 146.693C180.249 146.693 181.723 146.209 182.809 145.243C183.889 144.283 184.429 143.009 184.429 141.423L184.429 141.423C184.429 139.989 184.056 138.863 183.309 138.043C182.563 137.216 181.366 136.423 179.719 135.663L179.719 135.663L177.839 134.843C175.279 133.716 173.259 132.403 171.779 130.903C170.299 129.409 169.559 127.429 169.559 124.963L169.559 124.963C169.559 123.129 170.026 121.566 170.959 120.273C171.886 118.973 173.176 117.973 174.829 117.273C176.476 116.573 178.396 116.223 180.589 116.223L180.589 116.223C182.203 116.223 183.719 116.436 185.139 116.863C186.559 117.289 187.803 117.869 188.869 118.603L188.869 118.603L188.549 124.273L187.219 124.273L185.529 120.843C185.043 119.836 184.576 119.113 184.129 118.673C183.689 118.226 183.149 117.943 182.509 117.823L182.509 117.823C182.143 117.763 181.829 117.716 181.569 117.683C181.309 117.656 180.966 117.643 180.539 117.643L180.539 117.643C179.046 117.643 177.759 118.076 176.679 118.943C175.593 119.816 175.049 121.013 175.049 122.533L175.049 122.533C175.049 123.999 175.463 125.189 176.289 126.103C177.109 127.016 178.299 127.826 179.859 128.533L179.859 128.533L181.919 129.393C184.873 130.679 186.989 132.046 188.269 133.493C189.549 134.939 190.189 136.793 190.189 139.053L190.189 139.053C190.189 141.733 189.176 143.903 187.149 145.563C185.123 147.229 182.266 148.063 178.579 148.063ZM198.839 147.283L191.839 147.283L191.839 146.323L193.079 145.953C193.719 145.773 194.213 145.499 194.559 145.133C194.913 144.766 195.196 144.263 195.409 143.623L195.409 143.623L204.649 116.913L208.449 116.913L217.639 143.803C217.886 144.476 218.159 144.989 218.459 145.343C218.766 145.689 219.256 145.969 219.929 146.183L219.929 146.183L220.609 146.373L220.609 147.283L208.999 147.283L208.999 146.373L209.769 146.143C210.443 145.929 210.849 145.593 210.989 145.133C211.123 144.673 211.083 144.109 210.869 143.443L210.869 143.443L208.949 137.543L198.839 137.543L196.869 143.353C196.656 144.019 196.596 144.566 196.689 144.993C196.783 145.419 197.163 145.756 197.829 146.003L197.829 146.003L198.839 146.323L198.839 147.283ZM204.059 122.443L199.299 136.213L208.539 136.213L204.059 122.443ZM243.529 147.283L232.319 147.283L232.319 146.323L233.239 146.003C234.213 145.696 234.699 144.933 234.699 143.713L234.699 143.713C234.733 141.973 234.749 140.196 234.749 138.383C234.749 136.569 234.749 134.719 234.749 132.833L234.749 132.833L234.749 131.223C234.749 129.456 234.749 127.689 234.749 125.923C234.749 124.149 234.733 122.379 234.699 120.613L234.699 120.613C234.699 119.366 234.229 118.589 233.289 118.283L233.289 118.283L232.319 118.003L232.319 117.043L244.349 117.043C247.556 117.043 250.316 117.639 252.629 118.833C254.949 120.019 256.736 121.733 257.989 123.973C259.236 126.219 259.859 128.926 259.859 132.093L259.859 132.093C259.859 135.326 259.183 138.073 257.829 140.333C256.469 142.586 254.563 144.309 252.109 145.503C249.656 146.689 246.796 147.283 243.529 147.283L243.529 147.283ZM241.339 145.953L241.339 145.953L243.669 145.953C245.836 145.953 247.596 145.526 248.949 144.673C250.309 143.819 251.309 142.379 251.949 140.353C252.589 138.326 252.909 135.589 252.909 132.143L252.909 132.143C252.909 128.696 252.589 125.966 251.949 123.953C251.309 121.939 250.326 120.506 248.999 119.653C247.673 118.799 245.956 118.373 243.849 118.373L243.849 118.373L241.339 118.373C241.306 120.479 241.289 122.606 241.289 124.753C241.289 126.906 241.289 129.063 241.289 131.223L241.289 131.223L241.289 132.783C241.289 135.069 241.289 137.303 241.289 139.483C241.289 141.663 241.306 143.819 241.339 145.953ZM268.139 147.283L261.139 147.283L261.139 146.323L262.379 145.953C263.019 145.773 263.513 145.499 263.859 145.133C264.213 144.766 264.496 144.263 264.709 143.623L264.709 143.623L273.949 116.913L277.749 116.913L286.939 143.803C287.186 144.476 287.463 144.989 287.769 145.343C288.069 145.689 288.556 145.969 289.229 146.183L289.229 146.183L289.919 146.373L289.919 147.283L278.299 147.283L278.299 146.373L279.069 146.143C279.743 145.929 280.149 145.593 280.289 145.133C280.423 144.673 280.383 144.109 280.169 143.443L280.169 143.443L278.249 137.543L268.139 137.543L266.169 143.353C265.956 144.019 265.896 144.566 265.989 144.993C266.083 145.419 266.466 145.756 267.139 146.003L267.139 146.003L268.139 146.323L268.139 147.283ZM273.359 122.443L268.599 136.213L277.839 136.213L273.359 122.443Z" fill="#130fa8" fill-rule="evenodd" opacity="1" stroke="none"/>
    <path d="M126.484 181.452L126.484 181.452C123.665 181.452 121.119 180.873 118.847 179.713C116.574 178.547 114.775 176.827 113.449 174.555C112.129 172.282 111.469 169.516 111.469 166.258L111.469 166.258C111.469 163.812 111.869 161.642 112.669 159.75C113.469 157.864 114.575 156.271 115.988 154.971C117.401 153.678 119.023 152.702 120.856 152.042C122.689 151.389 124.638 151.063 126.704 151.063L126.704 151.063C128.303 151.063 129.803 151.246 131.202 151.612C132.602 151.972 133.942 152.502 135.221 153.202L135.221 153.202L135.391 158.92L134.211 158.92L132.382 155.471C132.089 154.891 131.776 154.368 131.442 153.902C131.109 153.435 130.679 153.102 130.153 152.902L130.153 152.902C129.426 152.549 128.567 152.372 127.574 152.372L127.574 152.372C125.861 152.372 124.298 152.809 122.885 153.682C121.472 154.555 120.343 156.004 119.496 158.03C118.657 160.05 118.237 162.809 118.237 166.307L118.237 166.307C118.237 169.766 118.637 172.515 119.436 174.555C120.236 176.594 121.319 178.043 122.685 178.903C124.058 179.763 125.601 180.193 127.314 180.193L127.314 180.193C128.1 180.193 128.74 180.133 129.233 180.013C129.733 179.9 130.229 179.74 130.723 179.533L130.723 179.533C131.302 179.3 131.752 178.957 132.072 178.503C132.392 178.057 132.669 177.54 132.902 176.954L132.902 176.954L134.561 172.985L135.741 172.985L135.571 179.273C134.318 179.973 132.935 180.509 131.422 180.883C129.91 181.262 128.263 181.452 126.484 181.452ZM151.506 181.452L151.506 181.452C149.733 181.452 148.03 181.132 146.397 180.493C144.765 179.853 143.302 178.9 142.009 177.634C140.716 176.367 139.69 174.788 138.93 172.895C138.177 171.003 137.8 168.79 137.8 166.258L137.8 166.258C137.8 163.785 138.177 161.602 138.93 159.71C139.69 157.817 140.716 156.231 142.009 154.951C143.302 153.672 144.771 152.702 146.417 152.042C148.063 151.389 149.76 151.063 151.506 151.063L151.506 151.063C153.252 151.063 154.948 151.383 156.594 152.022C158.24 152.662 159.703 153.615 160.982 154.881C162.262 156.148 163.282 157.727 164.041 159.62C164.794 161.512 165.171 163.725 165.171 166.258L165.171 166.258C165.171 168.737 164.794 170.919 164.041 172.805C163.282 174.698 162.262 176.287 160.982 177.574C159.703 178.853 158.247 179.82 156.614 180.473C154.988 181.126 153.285 181.452 151.506 181.452ZM151.506 180.143L151.506 180.143C153.165 180.143 154.505 179.713 155.524 178.853C156.544 178 157.287 176.554 157.753 174.515C158.22 172.475 158.453 169.723 158.453 166.258L158.453 166.258C158.453 162.792 158.22 160.05 157.753 158.03C157.287 156.004 156.544 154.561 155.524 153.702C154.505 152.849 153.165 152.422 151.506 152.422L151.506 152.422C149.873 152.422 148.54 152.849 147.507 153.702C146.474 154.561 145.724 156.004 145.258 158.03C144.798 160.05 144.568 162.792 144.568 166.258L144.568 166.258C144.568 169.723 144.798 172.475 145.258 174.515C145.724 176.554 146.474 178 147.507 178.853C148.54 179.713 149.873 180.143 151.506 180.143ZM189.273 180.713L166.96 180.713L166.96 179.843L182.205 153.162L174.078 153.162C173.178 153.162 172.452 153.379 171.899 153.812C171.345 154.252 170.866 154.865 170.459 155.651L170.459 155.651L168.62 159.1L167.44 159.1L167.75 151.852L189.013 151.852L189.013 152.722L173.778 179.403L183.075 179.403C183.975 179.403 184.688 179.176 185.214 178.723C185.741 178.277 186.207 177.644 186.614 176.824L186.614 176.824L188.403 173.465L189.583 173.465L189.273 180.713ZM202.418 180.713L191.502 180.713L191.502 179.793L192.372 179.533C192.958 179.326 193.345 179.056 193.531 178.723C193.725 178.39 193.821 177.917 193.821 177.304L193.821 177.304L193.821 155.261C193.821 154.648 193.725 154.175 193.531 153.842C193.345 153.502 192.958 153.232 192.372 153.032L192.372 153.032L191.502 152.772L191.502 151.852L202.418 151.852L202.418 152.772L201.549 153.032C200.995 153.232 200.616 153.502 200.409 153.842C200.209 154.175 200.109 154.648 200.109 155.261L200.109 155.261L200.109 177.304C200.109 177.917 200.209 178.39 200.409 178.723C200.616 179.056 200.995 179.326 201.549 179.533L201.549 179.533L202.418 179.793L202.418 180.713ZM211.675 180.713L204.947 180.713L204.947 179.793L206.217 179.443C206.77 179.296 207.157 179.02 207.377 178.613C207.596 178.207 207.706 177.714 207.706 177.134L207.706 177.134L207.706 156.001C207.44 155.448 207.213 155.031 207.027 154.751C206.833 154.478 206.637 154.238 206.437 154.032C206.23 153.832 205.954 153.598 205.607 153.332L205.607 153.332L204.817 152.772L204.817 151.852L212.285 151.852L226.78 171.676L226.78 155.471C226.78 154.891 226.687 154.382 226.5 153.942C226.307 153.509 225.92 153.219 225.34 153.072L225.34 153.072L224.031 152.772L224.031 151.852L230.539 151.852L230.539 152.772L229.449 153.072C228.896 153.245 228.553 153.545 228.419 153.972C228.286 154.392 228.219 154.891 228.219 155.471L228.219 155.471L228.219 180.883L225.78 180.883L209.146 158.01L209.146 177.084C209.146 177.697 209.233 178.207 209.406 178.613C209.579 179.02 209.942 179.296 210.496 179.443L210.496 179.443L211.675 179.793L211.675 180.713ZM243.854 180.713L233.068 180.713L233.068 179.793L233.898 179.533C234.484 179.326 234.877 179.056 235.077 178.723C235.284 178.39 235.387 177.934 235.387 177.354L235.387 177.354L235.387 155.261C235.387 154.675 235.29 154.208 235.097 153.862C234.911 153.509 234.527 153.232 233.948 153.032L233.948 153.032L233.068 152.772L233.068 151.852L243.854 151.852L243.854 152.772L243.114 152.982C242.561 153.189 242.181 153.459 241.975 153.792C241.775 154.125 241.675 154.585 241.675 155.171L241.675 155.171L241.675 165.208L252.541 165.208L252.541 155.171C252.541 154.585 252.441 154.125 252.241 153.792C252.035 153.459 251.642 153.189 251.062 152.982L251.062 152.982L250.362 152.772L250.362 151.852L261.148 151.852L261.148 152.772L260.319 153.032C259.765 153.232 259.379 153.502 259.159 153.842C258.939 154.175 258.829 154.631 258.829 155.211L258.829 155.211L258.829 177.354C258.829 177.934 258.939 178.39 259.159 178.723C259.379 179.056 259.765 179.326 260.319 179.533L260.319 179.533L261.148 179.793L261.148 180.713L250.362 180.713L250.362 179.793L251.062 179.573C251.642 179.373 252.035 179.106 252.241 178.773C252.441 178.433 252.541 177.974 252.541 177.394L252.541 177.394L252.541 166.517L241.675 166.517L241.675 177.394C241.675 177.974 241.782 178.433 241.995 178.773C242.215 179.106 242.601 179.373 243.154 179.573L243.154 179.573L243.854 179.793L243.854 180.713ZM269.136 180.713L262.458 180.713L262.458 179.793L263.637 179.443C264.244 179.27 264.717 179.01 265.057 178.663C265.39 178.31 265.66 177.83 265.867 177.224L265.867 177.224L274.684 151.722L278.302 151.722L287.079 177.394C287.313 178.033 287.576 178.52 287.869 178.853C288.162 179.193 288.629 179.463 289.269 179.663L289.269 179.663L289.919 179.843L289.919 180.713L278.832 180.713L278.832 179.843L279.572 179.623C280.212 179.416 280.598 179.096 280.732 178.663C280.858 178.223 280.822 177.684 280.622 177.044L280.622 177.044L278.782 171.416L269.136 171.416L267.256 176.954C267.056 177.594 267 178.12 267.086 178.533C267.173 178.94 267.536 179.26 268.176 179.493L268.176 179.493L269.136 179.793L269.136 180.713ZM274.114 157.001L269.575 170.146L278.392 170.146L274.114 157.001Z" fill="#130fa8" fill-rule="evenodd" opacity="1" stroke="none"/>
  </g>
</svg>